<svg xmlns="http://www.w3.org/2000/svg" viewBox="0 0 196 40" fill="none"><path d="M43.2359 32H38.1981V17.7419L30.6414 25.3871L23.0847 17.7419V32H18.0469V8H20.7252L30.7052 18.0968L40.5576 8H43.2359V32Z" fill="white"></path><path d="M13.009 18.7808H0L13.009 31.9421V18.7808Z" fill="white"></path><path d="M72.8849 31.9294H49.8682V8H71.9124V12.9305H54.9254V16.8749H66.0771V21.674H54.9254V27.1304H72.8849V31.9294Z" fill="white"></path><path d="M103.983 31.9297H98.3513L92.137 22.187H83.916V31.9297H78.9316V8.12891H94.7263C97.0567 8.12891 98.8692 8.71739 100.293 9.82896C101.847 11.0713 102.624 12.8368 102.624 15.1253C102.624 16.6946 102.171 18.0677 101.329 19.31C100.423 20.5524 99.2576 21.4024 97.7687 21.9255L103.983 31.9297ZM97.5098 15.1253C97.5098 14.4714 97.3156 13.9483 96.8625 13.556C96.4093 13.2291 95.6326 13.0329 94.6616 13.0329H83.916V17.4138H94.6616C95.6973 17.4138 96.4093 17.2177 96.8625 16.8253C97.3156 16.2369 97.5098 15.7138 97.5098 15.1253Z" fill="white"></path><path d="M134.074 31.9297H128.175L119.424 20.0293L115.859 23.1025V31.9297H110.803V8.12891H115.859V17.0215L126.295 8.12891H133.296L123.054 16.8907L134.074 31.9297Z" fill="white"></path><path d="M161.169 31.9294H139.933V8H144.983V27.1304H161.169V31.9294Z" fill="white"></path><path d="M189.634 31.9294H166.617V8H188.661V12.9305H171.61V16.8749H182.761V21.674H171.61V27.1304H189.634V31.9294Z" fill="white"></path></svg>