<svg xmlns="http://www.w3.org/2000/svg" viewBox="0 0 180 40" fill="none"><path d="M26.9996 24.8725C28.3679 22.0815 28.637 18.9169 27.758 15.9534C26.8791 12.99 24.9104 10.4243 22.2096 8.7225C24.3796 6.604 26.7296 4.5045 29.2096 2.5C26.3162 4.13413 23.5702 5.99298 20.9996 8.0575C18.2092 6.67521 14.9991 6.25947 11.9211 6.88171C8.84304 7.50395 6.08927 9.12531 4.13306 11.4671C2.17685 13.809 1.14038 16.725 1.2018 19.7141C1.26322 22.7031 2.41868 25.5785 4.4696 27.846C1.8796 33.1755 1.4696 37.4505 3.7096 38.8945C6.1596 40.443 11.4796 37.631 14.7096 33.0615C14.7096 33.0615 9.7696 37.289 7.0596 36.32C5.3896 35.7215 5.3896 33.2895 6.7596 29.8125C9.35531 31.6216 12.5446 32.4928 15.7554 32.27C18.9661 32.0471 21.9882 30.7448 24.2796 28.5965L24.7596 29.4515C30.6596 28.9955 48.2696 28.549 48.2696 28.549C48.2296 27.7605 36.5696 28.5205 26.9996 24.8725ZM2.8196 19.448C2.82173 17.5545 3.32362 15.6917 4.27937 14.0301C5.23512 12.3685 6.6142 10.9611 8.29046 9.93659C9.96671 8.91214 11.8866 8.30336 13.8745 8.16594C15.8624 8.02852 17.8549 8.36686 19.6696 9.15C13.8241 14.0073 8.94345 19.8216 5.2596 26.3165C3.67202 24.3449 2.81427 21.9303 2.8196 19.448ZM14.7296 30.7625C12.0557 30.7673 9.45857 29.9137 7.3596 28.34C9.7196 23.286 14.5196 16.503 21.0696 9.872C23.53 11.3438 25.3387 13.6198 26.1547 16.271C26.9707 18.9221 26.7377 21.7653 25.4996 24.2645C23.4323 23.3831 21.5226 22.2003 19.8396 20.759L23.4296 27.162C22.3181 28.2983 20.9718 29.2046 19.4748 29.8241C17.9779 30.4436 16.3624 30.7631 14.7296 30.7625Z" fill="white"></path><path d="M107.76 18.27L109.96 15.4865H102.28L104.17 13.102H111.86L114.07 10.3185H98.7296L88.1796 23.6185H103.52L105.72 20.835H98.0396L100.07 18.27H107.76Z" fill="white"></path><path d="M118.41 10.3185L107.86 23.6185H115.52L126.06 10.3185H118.41Z" fill="white"></path><path d="M143.91 10.3185L138.56 17.0635L136.92 10.3185H130.94L120.39 23.6185H125.45L130.75 16.94L132.38 23.6185H138.42L148.97 10.3185H143.91Z" fill="white"></path><path d="M168.93 10.3185H156.63C155.631 10.3174 154.645 10.5375 153.751 10.9613C152.857 11.3851 152.079 12.0009 151.48 12.76L145.13 20.7685C144.882 21.0767 144.748 21.4541 144.75 21.842C144.75 22.314 144.946 22.7669 145.297 23.1015C145.647 23.4362 146.123 23.6255 146.62 23.628H158.92C159.92 23.6298 160.908 23.4102 161.803 22.9864C162.699 22.5626 163.478 21.9463 164.08 21.1865L165.61 19.2865H167.39L169.61 16.4365H160.19L157.19 20.189C157.034 20.3869 156.832 20.5475 156.599 20.658C156.366 20.7685 156.11 20.8259 155.85 20.8255H153.68C153.55 20.8255 153.425 20.7765 153.333 20.6892C153.241 20.6019 153.19 20.4835 153.19 20.36C153.189 20.26 153.224 20.1628 153.29 20.0845L158.29 13.7195C158.445 13.521 158.647 13.36 158.88 13.2495C159.112 13.1389 159.369 13.0819 159.63 13.083H161.8C161.864 13.083 161.928 13.095 161.987 13.1184C162.047 13.1418 162.101 13.1761 162.146 13.2193C162.192 13.2626 162.228 13.3139 162.252 13.3704C162.277 13.4268 162.29 13.4874 162.29 13.5485C162.287 13.6479 162.252 13.7441 162.19 13.824L161.37 14.8595H169.01L170.36 13.1495C170.57 12.8853 170.699 12.5704 170.732 12.2403C170.764 11.9102 170.698 11.578 170.542 11.2815C170.386 10.985 170.146 10.7358 169.848 10.5623C169.551 10.3887 169.209 10.2977 168.86 10.2995L168.93 10.3185Z" fill="white"></path><path d="M92.4496 12.1045C92.4496 11.6333 92.2526 11.1815 91.9019 10.8483C91.5512 10.5152 91.0756 10.328 90.5796 10.328H78.2796C77.279 10.3262 76.2917 10.5458 75.396 10.9696C74.5003 11.3934 73.7209 12.0097 73.1196 12.7695L66.7696 20.778C66.5626 21.0431 66.437 21.3575 66.4067 21.6863C66.3764 22.0152 66.4426 22.3455 66.598 22.6407C66.7534 22.936 66.9919 23.1845 67.2869 23.3588C67.582 23.5331 67.9222 23.6263 68.2696 23.628H80.5696C81.5702 23.6298 82.5575 23.4102 83.4532 22.9864C84.3489 22.5626 85.1283 21.9463 85.7296 21.1865L92.0796 13.178C92.3233 12.8683 92.4532 12.4912 92.4496 12.1045ZM83.8996 13.843L78.8996 20.1985C78.7444 20.397 78.5423 20.558 78.3095 20.6685C78.0767 20.7791 77.8198 20.8361 77.5596 20.835H75.3496C75.2594 20.8341 75.1713 20.8097 75.0948 20.7643C75.0184 20.7189 74.9566 20.6543 74.9163 20.5777C74.876 20.5011 74.8587 20.4154 74.8663 20.3301C74.874 20.2447 74.9062 20.163 74.9596 20.094L79.9596 13.729C80.1164 13.5322 80.3189 13.3724 80.5513 13.262C80.7837 13.1516 81.0398 13.0936 81.2996 13.0925H83.4696C83.5996 13.0925 83.7242 13.1415 83.8161 13.2288C83.908 13.3161 83.9596 13.4345 83.9596 13.558C83.9568 13.6574 83.9219 13.7536 83.8596 13.8335L83.8996 13.843Z" fill="white"></path><path d="M63.5196 17.2915C65.006 16.9713 66.3244 16.1599 67.2396 15.002L68.6996 13.1685C68.9105 12.9043 69.0394 12.5894 69.0716 12.2593C69.1039 11.9291 69.0383 11.597 68.8822 11.3005C68.7262 11.004 68.4859 10.7548 68.1885 10.5813C67.8911 10.4077 67.5486 10.3167 67.1996 10.3185H51.6796L41.1296 23.6185H57.1896C58.1902 23.6203 59.1775 23.4007 60.0732 22.9769C60.9689 22.5531 61.7483 21.9368 62.3496 21.177L63.8396 19.277C64.0363 19.0313 64.1418 18.7307 64.1396 18.422C64.1392 18.1985 64.0839 17.9782 63.978 17.7786C63.872 17.579 63.7185 17.4057 63.5296 17.2725L63.5196 17.2915ZM56.4196 19.0205L55.4696 20.2175C55.3138 20.4154 55.1116 20.576 54.8789 20.6865C54.6463 20.797 54.3897 20.8544 54.1296 20.854H50.9996L52.9996 18.289H55.9996C56.1296 18.289 56.2542 18.338 56.3461 18.4253C56.438 18.5126 56.4896 18.631 56.4896 18.7545C56.4896 18.8544 56.4544 18.9514 56.3896 19.03L56.4196 19.0205ZM60.5196 13.8525L59.7096 14.869C59.5523 15.0646 59.3494 15.223 59.117 15.3318C58.8845 15.4405 58.6287 15.4967 58.3696 15.496H55.2396L57.1296 13.1115H60.1296C60.1939 13.1115 60.2577 13.1235 60.3171 13.1469C60.3766 13.1703 60.4306 13.2046 60.4761 13.2478C60.5216 13.2911 60.5577 13.3424 60.5823 13.3989C60.6069 13.4553 60.6196 13.5159 60.6196 13.577C60.6168 13.6764 60.5819 13.7726 60.5196 13.8525Z" fill="white"></path></svg>