<svg xmlns="http://www.w3.org/2000/svg" viewBox="0 0 269 40" fill="none"><g clip-path="url(#clip0_10216_4675)"><path d="M32.1256 17.8173C36.0282 17.8173 39.1818 14.7046 39.1818 10.9087C39.1818 7.11269 36.1464 4 32.165 4L-0.00195312 4C7.52732 17.21 15.2143 17.8173 26.8038 17.8173L32.1256 17.8173ZM32.1256 22.1827L9.45891 22.1827C15.096 31.255 20.5754 36 30.0363 36H32.0073C35.9099 36 39.2212 32.8493 39.2212 29.0913C39.1818 25.1435 36.1859 22.1827 32.1256 22.1827ZM86.9986 19.6773C88.1024 18.9561 88.8514 17.7034 88.8514 16.1851C88.8514 13.8316 86.9986 12.0095 83.4508 12.0095L71.5064 12.0095L71.5064 28.1044L83.9238 28.1044C87.314 28.1044 89.3638 26.1305 89.3638 23.5492C89.3638 21.4614 88.1024 20.2467 86.9986 19.6773ZM74.463 14.6667L83.3719 14.6667C84.8305 14.6667 85.7372 15.3879 85.7372 16.6026C85.7372 17.7414 84.9882 18.6524 83.3719 18.6524H74.463L74.463 14.6667ZM83.9632 25.4093L74.463 25.4093L74.463 21.2337L84.0421 21.2337C85.3035 21.2337 86.1708 22.1068 86.1708 23.3215C86.2102 24.4223 85.4612 25.4093 83.9632 25.4093ZM124.882 25.4093L112.819 25.4093L112.819 12.8066C112.819 12.3132 112.543 12.0095 111.991 12.0095H110.611C110.138 12.0095 109.823 12.3132 109.823 12.8066L109.823 28.0664L124.842 28.0664C125.355 28.0664 125.67 27.7628 125.67 27.2693L125.67 26.2444C125.749 25.7509 125.433 25.4093 124.882 25.4093ZM192.487 12.0475H182.948L182.948 28.0664L192.566 28.0664C197.612 28.0664 201.357 25.2954 201.357 19.9431C201.278 15.312 198.006 12.0475 192.487 12.0475ZM192.448 25.4093L185.944 25.4093L185.944 14.6667H192.448C196.311 14.6667 198.164 17.21 198.164 19.9431C198.164 22.9039 196.39 25.4093 192.448 25.4093ZM235.731 14.6667C236.244 14.6667 236.52 14.363 236.52 13.8695L236.52 12.8446C236.52 12.3511 236.244 12.0475 235.731 12.0475L220.318 12.0475L220.318 28.1044L235.731 28.1044C236.244 28.1044 236.52 27.8007 236.52 27.3072L236.52 26.2823C236.52 25.7889 236.244 25.4852 235.731 25.4852L223.314 25.4852L223.314 21.2716L232.184 21.2716C232.696 21.2716 233.011 20.968 233.011 20.4745L233.011 19.4496C233.011 18.9561 232.696 18.6524 232.184 18.6524H223.275L223.275 14.7046L235.731 14.7046L235.731 14.6667ZM163.198 26.1305L155.984 12.5789C155.787 12.1993 155.472 12.0475 154.959 12.0475H153.067C152.594 12.0475 152.279 12.2372 152.081 12.5789L144.434 26.9656L143.843 28.0664H146.523C147.036 28.0664 147.351 27.9146 147.548 27.497L149.243 24.2325H158.822L160.517 27.497C160.754 27.9146 161.03 28.0664 161.542 28.0664H164.302L163.198 26.1305ZM150.584 21.5753L154.013 14.9324L157.403 21.5753H150.584Z" fill="white"></path></g></svg>